<?xml version="1.0" standalone="no"?><!DOCTYPE svg PUBLIC "-//W3C//DTD SVG 1.1//EN" "http://www.w3.org/Graphics/SVG/1.1/DTD/svg11.dtd"><svg t="1514114261388" class="icon" style="" viewBox="0 0 1024 1024" version="1.1" xmlns="http://www.w3.org/2000/svg" p-id="2813" xmlns:xlink="http://www.w3.org/1999/xlink" width="200" height="200"><defs><style type="text/css"></style></defs><path d="M270.755052 931.805228c-66.954925 0-121.461329-54.479799-121.461329-121.428583 0-66.944691 54.506405-121.44598 121.461329-121.44598 66.982554 0 121.42449 54.501288 121.42449 121.44598C392.180566 877.325429 337.737606 931.805228 270.755052 931.805228L270.755052 931.805228 270.755052 931.805228 270.755052 931.805228zM270.755052 732.888829c-42.742477 0-77.498048 34.761712-77.498048 77.488839 0 42.739407 34.755572 77.492932 77.498048 77.492932 42.726104 0 77.488839-34.753525 77.488839-77.492932C348.243891 767.649518 313.482179 732.888829 270.755052 732.888829L270.755052 732.888829 270.755052 732.888829 270.755052 732.888829zM270.755052 732.888829" p-id="2814"></path><path d="M764.070504 931.805228c-66.955948 0-121.456213-54.479799-121.456213-121.428583 0-66.944691 54.501288-121.44598 121.456213-121.44598 66.975391 0 121.414257 54.501288 121.414257 121.44598C885.484761 877.325429 831.045895 931.805228 764.070504 931.805228L764.070504 931.805228 764.070504 931.805228 764.070504 931.805228zM764.070504 732.888829c-42.744523 0-77.499072 34.761712-77.499072 77.488839 0 42.739407 34.754548 77.492932 77.499072 77.492932 42.742477 0 77.479629-34.753525 77.479629-77.492932C841.550133 767.649518 806.811957 732.888829 764.070504 732.888829L764.070504 732.888829 764.070504 732.888829 764.070504 732.888829zM764.070504 732.888829" p-id="2815"></path><path d="M664.586722 832.350099 384.301108 832.350099c-12.103666 0-21.979594-9.830903-21.979594-21.978571 0-12.127202 9.875928-21.963221 21.979594-21.963221l280.285614 0c12.195763 0 21.983687 9.836019 21.983687 21.963221C686.571433 822.518173 676.782485 832.350099 664.586722 832.350099L664.586722 832.350099 664.586722 832.350099 664.586722 832.350099zM664.586722 832.350099" p-id="2816"></path><path d="M286.534434 729.95808c-2.148943 0-4.322445-0.296759-6.507204-0.976234-11.586896-3.621481-18.033725-15.924691-14.429641-27.516704l26.682709-86.072331L142.182768 165.202553 19.718599 130.224924c-11.672854-3.297093-18.464537-15.491833-15.098883-27.16878 3.340071-11.628852 15.535835-18.530029 27.15957-15.055904l133.61923 38.144762c6.980995 1.974981 12.496615 7.312546 14.801101 14.169721l156.038846 467.858664c1.462305 4.381797 1.542122 9.070586 0.177032 13.468756l-28.858258 92.867084C304.647977 723.909317 295.928385 729.95808 286.534434 729.95808L286.534434 729.95808 286.534434 729.95808 286.534434 729.95808zM286.534434 729.95808" p-id="2817"></path><path d="M875.46557 637.099183 315.371202 637.099183c-9.599635 0-18.0941-6.229888-20.942985-15.408945L186.230983 275.875165c-2.125407-6.705726-0.873903-13.947663 3.247974-19.566638 4.123924-5.621021 10.723226-8.984628 17.667382-8.984628l790.341333 0c6.92676 0 13.409404 3.227508 17.59882 8.764618 4.128017 5.487991 5.445012 12.605086 3.580548 19.268856L929.185053 588.404134C927.38608 615.981213 904.474254 637.099183 875.46557 637.099183L875.46557 637.099183 875.46557 637.099183 875.46557 637.099183zM331.559906 593.156368l543.906687 0c3.683902 0 9.874905-1.710968 9.874905-8.239662 0-2.067079 0.281409-4.079922 0.842181-6.054903l82.233909-287.578718L237.063719 291.283086 331.559906 593.156368 331.559906 593.156368 331.559906 593.156368 331.559906 593.156368zM331.559906 593.156368" p-id="2818"></path></svg>