<?xml version="1.0" standalone="no"?><!DOCTYPE svg PUBLIC "-//W3C//DTD SVG 1.1//EN" "http://www.w3.org/Graphics/SVG/1.1/DTD/svg11.dtd"><svg t="1514566293661" class="icon" style="" viewBox="0 0 1024 1024" version="1.1" xmlns="http://www.w3.org/2000/svg" p-id="3313" xmlns:xlink="http://www.w3.org/1999/xlink" width="200" height="200"><defs><style type="text/css"></style></defs><path d="M874.048 149.952c-199.936-199.872-524.16-199.936-724.096 0-199.936 200-199.872 524.16 0 724.096 199.936 199.872 524.096 200 724.096 0C1073.984 674.048 1073.984 349.888 874.048 149.952M191.232 832.768c-176.832-176.896-176.832-464.64 0.064-641.408s464.576-176.832 641.344 0 176.832 464.512 0 641.344C655.808 1009.536 368.128 1009.472 191.232 832.768" p-id="3314" fill="#dbdbdb"></path><path d="M718.336 667.776 562.688 512.064l155.648-155.776c14.016-14.016 14.016-36.672 0-50.688-13.952-13.952-36.672-14.016-50.624 0L511.936 461.312 356.224 305.6c-13.952-13.952-36.608-14.016-50.624 0S291.712 342.336 305.664 356.224l155.648 155.712-155.712 155.776c-14.016 13.952-13.952 36.672 0.064 50.624 13.952 13.952 36.608 14.016 50.624 0.064l155.776-155.776 155.712 155.712c13.952 13.952 36.608 14.016 50.56 0C732.288 704.384 732.288 681.664 718.336 667.776" p-id="3315" fill="#dbdbdb"></path></svg>