<?xml version="1.0" encoding="utf-8"?>
<!-- Generator: Adobe Illustrator 21.0.0, SVG Export Plug-In . SVG Version: 6.00 Build 0)  -->
<svg version="1.1" id="图层_1" xmlns="http://www.w3.org/2000/svg" xmlns:xlink="http://www.w3.org/1999/xlink" x="0px" y="0px"
	 viewBox="0 0 405 181" style="enable-background:new 0 0 405 181;" xml:space="preserve">
<style type="text/css">
	.st0{fill:#E22377;}
</style>
<g>
	<path class="st0" d="M60.6,61.2h15.6v21.2h3.9L99.9,61h19.8L94.5,88.6l28.3,28.9h-21.7l-21-22.2h-3.9v19.2l-15.6,3.6V61.2z"/>
	<path class="st0" d="M134.1,60.9L150,61v52.2l-15.9,4.6V60.9z"/>
	<path class="st0" d="M215.6,61.1L211,74.3h-15.9v40.2l-15.3,4.4V74.3h-19.9V61.1H215.6z"/>
	<path class="st0" d="M280.8,61.1l-4.7,13.2h-15.9v40.2l-15.3,4.4V74.3H225V61.1H280.8z"/>
	<path class="st0" d="M287.9,61h18.8l15.8,21.7L337.7,61h18.8l-26.6,38v15.5l-15.2,4.4V99.1L287.9,61z"/>
</g>
</svg>
